<mxfile host="65bd71144e">
    <diagram id="_wgTXCCWW30Mr1kDmFAN" name="Page-1">
        <mxGraphModel dx="1173" dy="873" grid="1" gridSize="10" guides="1" tooltips="1" connect="1" arrows="1" fold="1" page="1" pageScale="1" pageWidth="850" pageHeight="1100" math="0" shadow="0">
            <root>
                <mxCell id="0"/>
                <mxCell id="1" parent="0"/>
                <mxCell id="27" style="edgeStyle=none;html=1;entryX=0;entryY=0.5;entryDx=0;entryDy=0;" parent="1" source="2" target="26" edge="1">
                    <mxGeometry relative="1" as="geometry"/>
                </mxCell>
                <mxCell id="2" value="Student" style="rounded=0;whiteSpace=wrap;html=1;" parent="1" vertex="1">
                    <mxGeometry x="120" y="170" width="120" height="60" as="geometry"/>
                </mxCell>
                <mxCell id="9" style="edgeStyle=none;html=1;entryX=0;entryY=0.5;entryDx=0;entryDy=0;exitX=0.5;exitY=1;exitDx=0;exitDy=0;" parent="1" source="3" target="5" edge="1">
                    <mxGeometry relative="1" as="geometry">
                        <mxPoint x="270" y="340" as="targetPoint"/>
                        <Array as="points">
                            <mxPoint x="260" y="380"/>
                            <mxPoint x="260" y="480"/>
                        </Array>
                    </mxGeometry>
                </mxCell>
                <mxCell id="14" style="edgeStyle=none;html=1;entryX=0;entryY=0.5;entryDx=0;entryDy=0;exitX=0.055;exitY=0.74;exitDx=0;exitDy=0;exitPerimeter=0;" parent="1" source="3" target="13" edge="1">
                    <mxGeometry relative="1" as="geometry">
                        <Array as="points">
                            <mxPoint x="220" y="360"/>
                            <mxPoint x="220" y="620"/>
                        </Array>
                    </mxGeometry>
                </mxCell>
                <mxCell id="22" style="edgeStyle=none;html=1;entryX=0;entryY=0.5;entryDx=0;entryDy=0;" parent="1" source="3" target="21" edge="1">
                    <mxGeometry relative="1" as="geometry">
                        <Array as="points">
                            <mxPoint x="180" y="340"/>
                            <mxPoint x="180" y="740"/>
                        </Array>
                    </mxGeometry>
                </mxCell>
                <mxCell id="32" style="edgeStyle=none;html=1;entryX=0;entryY=0.5;entryDx=0;entryDy=0;exitX=0.058;exitY=0.263;exitDx=0;exitDy=0;exitPerimeter=0;" parent="1" source="3" target="31" edge="1">
                    <mxGeometry relative="1" as="geometry">
                        <Array as="points">
                            <mxPoint x="140" y="320"/>
                            <mxPoint x="140" y="860"/>
                        </Array>
                    </mxGeometry>
                </mxCell>
                <mxCell id="38" style="edgeStyle=none;html=1;entryX=0;entryY=0.5;entryDx=0;entryDy=0;exitX=0.331;exitY=0.029;exitDx=0;exitDy=0;exitPerimeter=0;" parent="1" source="3" target="37" edge="1">
                    <mxGeometry relative="1" as="geometry">
                        <Array as="points">
                            <mxPoint x="100" y="300"/>
                            <mxPoint x="100" y="960"/>
                        </Array>
                    </mxGeometry>
                </mxCell>
                <mxCell id="3" value="Login" style="ellipse;whiteSpace=wrap;html=1;" parent="1" vertex="1">
                    <mxGeometry x="360" y="300" width="120" height="80" as="geometry"/>
                </mxCell>
                <mxCell id="17" style="edgeStyle=none;html=1;exitX=0.993;exitY=0.37;exitDx=0;exitDy=0;exitPerimeter=0;" parent="1" source="5" edge="1">
                    <mxGeometry relative="1" as="geometry">
                        <mxPoint x="610" y="467" as="targetPoint"/>
                    </mxGeometry>
                </mxCell>
                <mxCell id="5" value="View Students" style="ellipse;whiteSpace=wrap;html=1;" parent="1" vertex="1">
                    <mxGeometry x="354" y="430" width="140" height="100" as="geometry"/>
                </mxCell>
                <mxCell id="18" style="edgeStyle=none;html=1;entryX=1.014;entryY=0.6;entryDx=0;entryDy=0;exitX=-0.002;exitY=0.66;exitDx=0;exitDy=0;exitPerimeter=0;entryPerimeter=0;" parent="1" source="10" target="5" edge="1">
                    <mxGeometry relative="1" as="geometry"/>
                </mxCell>
                <mxCell id="10" value="Student Collection" style="rounded=0;whiteSpace=wrap;html=1;" parent="1" vertex="1">
                    <mxGeometry x="610" y="450" width="120" height="60" as="geometry"/>
                </mxCell>
                <mxCell id="16" style="edgeStyle=none;html=1;entryX=0;entryY=0.5;entryDx=0;entryDy=0;" parent="1" edge="1">
                    <mxGeometry relative="1" as="geometry">
                        <mxPoint x="496" y="610" as="sourcePoint"/>
                        <mxPoint x="610" y="610" as="targetPoint"/>
                    </mxGeometry>
                </mxCell>
                <mxCell id="13" value="View Principal" style="ellipse;whiteSpace=wrap;html=1;" parent="1" vertex="1">
                    <mxGeometry x="361" y="570" width="135" height="100" as="geometry"/>
                </mxCell>
                <mxCell id="19" style="edgeStyle=none;html=1;" parent="1" edge="1">
                    <mxGeometry relative="1" as="geometry">
                        <mxPoint x="610" y="627" as="sourcePoint"/>
                        <mxPoint x="496" y="627" as="targetPoint"/>
                    </mxGeometry>
                </mxCell>
                <mxCell id="15" value="Principal Collection" style="rounded=0;whiteSpace=wrap;html=1;" parent="1" vertex="1">
                    <mxGeometry x="610" y="590" width="120" height="60" as="geometry"/>
                </mxCell>
                <mxCell id="24" style="edgeStyle=none;html=1;entryX=0;entryY=0.5;entryDx=0;entryDy=0;" parent="1" edge="1">
                    <mxGeometry relative="1" as="geometry">
                        <mxPoint x="496" y="730" as="sourcePoint"/>
                        <mxPoint x="610" y="730" as="targetPoint"/>
                    </mxGeometry>
                </mxCell>
                <mxCell id="21" value="View Announcements" style="ellipse;whiteSpace=wrap;html=1;" parent="1" vertex="1">
                    <mxGeometry x="361" y="690" width="135" height="100" as="geometry"/>
                </mxCell>
                <mxCell id="25" style="edgeStyle=none;html=1;" parent="1" edge="1">
                    <mxGeometry relative="1" as="geometry">
                        <mxPoint x="610" y="750" as="sourcePoint"/>
                        <mxPoint x="496" y="750" as="targetPoint"/>
                    </mxGeometry>
                </mxCell>
                <mxCell id="23" value="Announcement Collection" style="rounded=0;whiteSpace=wrap;html=1;" parent="1" vertex="1">
                    <mxGeometry x="610" y="710" width="120" height="60" as="geometry"/>
                </mxCell>
                <mxCell id="28" style="edgeStyle=none;html=1;entryX=0.5;entryY=0;entryDx=0;entryDy=0;" parent="1" source="26" target="3" edge="1">
                    <mxGeometry relative="1" as="geometry"/>
                </mxCell>
                <mxCell id="30" style="edgeStyle=none;html=1;" parent="1" source="26" target="29" edge="1">
                    <mxGeometry relative="1" as="geometry"/>
                </mxCell>
                <mxCell id="26" value="Signin" style="ellipse;whiteSpace=wrap;html=1;" parent="1" vertex="1">
                    <mxGeometry x="360" y="160" width="120" height="80" as="geometry"/>
                </mxCell>
                <mxCell id="29" value="Student Collection" style="rounded=0;whiteSpace=wrap;html=1;" parent="1" vertex="1">
                    <mxGeometry x="600" y="170" width="120" height="60" as="geometry"/>
                </mxCell>
                <mxCell id="31" value="View Teachers" style="ellipse;whiteSpace=wrap;html=1;" parent="1" vertex="1">
                    <mxGeometry x="360" y="820" width="150" height="80" as="geometry"/>
                </mxCell>
                <mxCell id="34" value="Teacher Collection" style="rounded=0;whiteSpace=wrap;html=1;" parent="1" vertex="1">
                    <mxGeometry x="620" y="830" width="120" height="60" as="geometry"/>
                </mxCell>
                <mxCell id="35" style="edgeStyle=none;html=1;" parent="1" edge="1">
                    <mxGeometry relative="1" as="geometry">
                        <mxPoint x="620" y="870" as="sourcePoint"/>
                        <mxPoint x="506" y="870" as="targetPoint"/>
                    </mxGeometry>
                </mxCell>
                <mxCell id="36" style="edgeStyle=none;html=1;entryX=0;entryY=0.5;entryDx=0;entryDy=0;exitX=0.979;exitY=0.361;exitDx=0;exitDy=0;exitPerimeter=0;" parent="1" source="31" edge="1">
                    <mxGeometry relative="1" as="geometry">
                        <mxPoint x="510" y="850" as="sourcePoint"/>
                        <mxPoint x="620" y="850" as="targetPoint"/>
                    </mxGeometry>
                </mxCell>
                <mxCell id="37" value="View / Edit Profile, View Attendance, Mark&amp;nbsp;" style="ellipse;whiteSpace=wrap;html=1;" parent="1" vertex="1">
                    <mxGeometry x="374" y="920" width="120" height="80" as="geometry"/>
                </mxCell>
                <mxCell id="40" style="edgeStyle=none;html=1;exitX=0.993;exitY=0.37;exitDx=0;exitDy=0;exitPerimeter=0;" edge="1" parent="1">
                    <mxGeometry relative="1" as="geometry">
                        <mxPoint x="610" y="947" as="targetPoint"/>
                        <mxPoint x="493.02" y="947" as="sourcePoint"/>
                    </mxGeometry>
                </mxCell>
                <mxCell id="41" style="edgeStyle=none;html=1;entryX=1.014;entryY=0.6;entryDx=0;entryDy=0;exitX=-0.002;exitY=0.66;exitDx=0;exitDy=0;exitPerimeter=0;entryPerimeter=0;" edge="1" source="42" parent="1">
                    <mxGeometry relative="1" as="geometry">
                        <mxPoint x="495.96000000000004" y="970" as="targetPoint"/>
                    </mxGeometry>
                </mxCell>
                <mxCell id="42" value="Student Collection" style="rounded=0;whiteSpace=wrap;html=1;" vertex="1" parent="1">
                    <mxGeometry x="610" y="930" width="120" height="60" as="geometry"/>
                </mxCell>
            </root>
        </mxGraphModel>
    </diagram>
</mxfile>